<svg width="4000" height="4000" viewBox="0 0 4000 4000" fill="none" xmlns="http://www.w3.org/2000/svg">
<g clip-path="url(#clip0_3_127)">
<path d="M2000 4000C3104.57 4000 4000 3104.57 4000 2000C4000 895.43 3104.57 0 2000 0C895.43 0 0 895.43 0 2000C0 3104.57 895.43 4000 2000 4000Z" fill="#DEBB45"/>
<path d="M2833.97 1169.07C2887.2 1368.31 3023.57 1511.28 3138.15 1667.93C3197.97 1749.56 3244.11 1837.26 3275.54 1934.6C3299.87 2009.13 3359.7 2022.31 3401.77 1955.39C3440.81 1893.03 3474.27 1821.55 3488.47 1749.05C3506.72 1656.78 3502.15 1559.44 3509.76 1464.64C3514.83 1401.77 3521.93 1338.4 3573.64 1292.27C3534.6 1435.23 3578.71 1577.19 3573.64 1719.65C3568.06 1877.31 3529.53 2017.24 3413.43 2130.8C3344.99 2197.72 3289.73 2278.83 3230.93 2355.89C3126.49 2494.3 2982 2544.49 2822.31 2568.82C2676.81 2591.13 2531.81 2620.53 2401.01 2697.08C2297.08 2757.92 2204.82 2830.93 2156.65 2950.57C2155.13 2954.12 2150.57 2956.15 2147.02 2959.19C2093.28 2767.05 2154.12 2503.42 2301.65 2380.74C2400 2299.11 2510.52 2229.66 2560.2 2097.85L2571.36 2101.9C2571.36 2117.11 2573.38 2132.83 2571.36 2148.04C2559.7 2228.64 2510.01 2284.41 2457.79 2338.66C2428.39 2369.07 2396.45 2396.45 2370.6 2429.4C2349.81 2455.77 2337.14 2489.23 2321.42 2519.14L2333.08 2526.74C2443.09 2465.4 2555.13 2407.1 2663.12 2341.7C2694.04 2322.94 2720.91 2287.96 2738.66 2254.5C2819.26 2102.41 2891.76 1946.77 2878.58 1764.77C2877.57 1754.12 2879.59 1743.47 2880.1 1732.83L2891.25 1728.26C2899.37 1748.04 2909.51 1767.3 2914.58 1788.09C2953.11 1948.8 2936.37 2105.45 2886.69 2261.09C2876.55 2292.52 2883.65 2330.04 2882.64 2365.02C2914.07 2356.4 2948.54 2353.87 2975.92 2337.64C3149.3 2236.76 3206.59 2075.54 3134.6 1881.88C3110.27 1815.97 3074.78 1753.61 3040.81 1692.27C2982.51 1586.31 2918.63 1483.9 2861.85 1376.93C2828.39 1313.56 2823.83 1242.08 2834.47 1168.57L2833.97 1169.07Z" fill="#004A4F"/>
<path d="M2057.29 1678.58C2092.27 1779.97 2068.44 1866.67 2018.76 1949.3C1928.01 1894.55 1916.35 1795.69 1982.76 1688.21C1944.74 1702.92 1904.18 1725.73 1861.09 1733.33C1819.01 1740.43 1773.89 1732.32 1725.73 1730.8C1737.9 1666.92 1767.3 1629.4 1811.41 1602.54C1857.54 1574.65 1903.68 1576.68 1951.33 1605.58C1877.31 1541.7 1848.42 1459.57 1842.33 1365.27C1946.77 1349.56 2010.14 1424.08 2015.72 1581.24C2044.61 1466.67 2110.01 1404.31 2201.27 1367.81C2248.92 1468.69 2200.25 1564.01 2087.71 1600C2125.22 1611.66 2169.84 1618.76 2207.35 1639.04C2245.88 1659.82 2277.82 1693.79 2312.8 1722.18C2245.37 1806.84 2150.06 1789.61 2056.27 1679.59L2057.29 1678.58Z" fill="#004A4F"/>
<path d="M2491.25 1773.89C2378.2 1853.99 2316.35 1967.05 2293.03 2106.46C2283.9 2160.71 2271.23 2214.96 2256.53 2268.19C2250.95 2288.47 2240.81 2310.77 2226.11 2324.46C2176.43 2370.09 2124.21 2412.17 2072.5 2455.77C2040.56 2250.95 2294.04 1835.74 2491.76 1773.38L2491.25 1773.89Z" fill="#004A4F"/>
<path d="M1537.64 1749.05C1644.61 1825.09 1703.42 1932.07 1725.73 2064.39C1734.35 2116.1 1746.51 2167.3 1760.2 2217.49C1765.27 2236.76 1775.41 2258.05 1789.1 2270.72C1836.25 2313.81 1885.93 2353.87 1934.6 2394.93C1964.51 2200.76 1724.71 1807.35 1537.64 1748.54V1749.05Z" fill="#004A4F"/>
<path d="M1166.03 1169.07C1112.8 1368.31 976.426 1511.28 861.85 1667.93C802.028 1749.56 755.894 1837.26 724.461 1934.6C700.127 2009.13 640.304 2022.31 598.226 1955.39C559.189 1893.03 525.729 1821.55 511.534 1749.05C493.283 1656.78 497.845 1559.44 490.241 1464.64C485.171 1401.77 478.074 1338.4 426.363 1292.27C465.399 1435.23 421.293 1577.19 426.363 1719.65C431.939 1877.31 470.469 2017.24 586.565 2130.8C655.006 2197.72 710.266 2278.83 769.075 2355.89C873.511 2494.3 1018 2544.49 1177.69 2568.82C1323.19 2591.13 1468.19 2620.53 1598.99 2697.08C1702.92 2757.92 1795.18 2830.93 1843.35 2950.57C1844.87 2954.12 1849.43 2956.15 1852.98 2959.19C1906.72 2767.05 1845.88 2503.42 1698.35 2380.74C1600 2299.11 1489.48 2229.66 1439.8 2097.85L1428.64 2101.9C1428.64 2117.11 1426.62 2132.83 1428.64 2148.04C1440.3 2228.64 1489.99 2284.41 1542.21 2338.66C1571.61 2369.07 1603.55 2396.45 1629.4 2429.4C1650.19 2455.77 1662.86 2489.23 1678.58 2519.14L1666.92 2526.74C1556.91 2465.4 1444.87 2407.1 1336.88 2341.7C1305.96 2322.94 1279.09 2287.96 1261.34 2254.5C1180.74 2102.41 1108.24 1946.77 1121.42 1764.77C1122.43 1754.12 1120.41 1743.47 1119.9 1732.83L1108.75 1728.26C1100.63 1748.04 1090.49 1767.3 1085.42 1788.09C1046.89 1948.8 1063.62 2105.45 1113.31 2261.09C1123.45 2292.52 1116.35 2330.04 1117.36 2365.02C1085.93 2356.4 1051.46 2353.87 1024.08 2337.64C850.697 2236.76 793.409 2075.54 865.399 1881.88C889.734 1815.97 925.222 1753.61 959.189 1692.27C1017.49 1586.31 1081.37 1483.9 1138.15 1376.93C1171.61 1313.56 1176.17 1242.08 1165.53 1168.57L1166.03 1169.07Z" fill="#004A4F"/>
</g>
<defs>
<clipPath id="clip0_3_127">
<rect width="4000" height="4000" fill="white"/>
</clipPath>
</defs>
</svg>
