<svg width="4000" height="2070" viewBox="0 0 4000 2070" fill="none" xmlns="http://www.w3.org/2000/svg">
<g clip-path="url(#clip0_3_92)">
<path d="M277.122 2070H11.2447C5.03052 2070 0 2053.72 0 2033.62V2032.66C0 2015.43 3.84687 2001.06 9.02534 1997.23C32.8463 1979.04 71.0191 1894.31 71.0191 1714.31V370.532C70.8711 187.66 32.8463 104.84 9.02534 87.1276C3.84687 83.2979 0 68.9362 0 51.7021V50.7447C0 30.6383 5.03052 14.3617 11.2447 14.3617H349.917C502.904 14.3617 575.698 298.245 577.622 594.096C580.433 911.011 499.205 1243.24 349.917 1243.24H228.593C222.378 1243.24 217.348 1259.52 217.348 1279.63V1714.31C217.348 1895.27 254.929 1980 279.194 1997.71C284.372 2001.54 288.219 2015.9 288.219 2033.14V2034.1C288.219 2054.2 283.188 2070.48 276.974 2070.48L277.122 2070ZM217.496 1097.23C217.496 1105.85 219.715 1113.03 222.378 1113.03H255.817C362.197 1113.03 418.125 847.34 416.349 593.617C413.538 364.308 363.233 143.617 255.817 143.617H222.378C219.715 143.617 217.496 150.798 217.496 159.415V1097.23Z" fill="#0E331C"/>
<path d="M943.961 2070C909.931 2070 881.376 2027.39 864.657 1933.09C862.141 1918.72 856.223 1914.89 852.376 1925.43C820.714 2010.64 780.469 2070 732.236 2070C659.441 2070 594.192 1943.14 594.192 1668.35C594.192 1312.18 711.818 1182.45 847.05 1170V1151.81C847.05 988.564 855.483 683.617 782.689 683.617C716.404 680.745 707.083 907.181 749.103 961.276C757.536 973.245 758.424 994.308 756.501 1012.5C749.99 1097.23 723.802 1145.58 695.838 1148.46C581.024 1157.55 583.835 593.138 797.484 593.138C889.809 593.138 973.848 738.191 973.848 1139.84V1668.35C973.848 1847.39 996.93 1929.73 1036.58 1889.04C1039.98 1885.69 1043.54 1890 1045.61 1899.57L1046.2 1902.45C1048.57 1913.46 1047.97 1928.78 1044.87 1937.87C1013.5 2024.52 978.435 2070 943.961 2070ZM846.458 1813.88C848.529 1808.14 849.417 1799.04 849.121 1790.43C847.642 1757.39 847.05 1720.05 847.05 1677.45V1286.81C847.05 1271.01 842.759 1258.56 837.876 1260.48C759.016 1287.77 729.572 1475.9 729.572 1644.41C731.348 1936.44 800 1946.01 846.606 1813.88H846.458Z" fill="#0E331C"/>
<path d="M2084.26 593.617C2132.79 593.617 2180.58 659.202 2209.43 803.298C2213.87 825.319 2223.64 825.798 2228.22 804.734C2254.85 682.659 2303.09 593.617 2362.27 593.617C2440.69 593.617 2516.29 762.606 2516.29 1152.29V1765.05C2516.29 1902.93 2548.1 1980.48 2570.89 1997.23C2576.07 2001.06 2579.77 2015.9 2579.77 2033.14C2579.77 2053.72 2574.59 2070 2568.37 2070H2336.53C2330.16 2070 2325.13 2053.24 2325.13 2033.14C2325.13 2015.9 2328.68 2001.06 2333.86 1997.23C2356.35 1980.48 2388.61 1902.93 2388.61 1765.53V1152.77C2388.61 875.106 2351.32 778.404 2313 778.404C2263.58 778.404 2237.4 932.553 2237.4 1131.7V1765.53C2237.4 1903.4 2269.95 1980.96 2292.88 1997.71C2298.06 2001.54 2301.76 2016.38 2301.76 2033.62C2301.76 2054.2 2296.58 2070.48 2290.36 2070.48H2057.48C2051.12 2070.48 2046.09 2053.72 2046.09 2033.62C2046.09 2016.38 2049.79 2001.54 2054.97 1997.71C2078.05 1980.96 2110.45 1903.88 2110.45 1765.53V1152.77C2110.45 875.106 2073.16 778.404 2034.84 778.404C2001.85 778.404 1968.85 860.266 1959.68 960.319C1959.39 963.67 1959.24 967.5 1959.24 971.33V1766.01C1959.24 1903.4 1991.49 1980.96 2013.98 1997.71C2019.16 2001.54 2022.71 2016.38 2022.71 2033.62C2022.71 2054.2 2017.53 2070.96 2011.32 2070.96H1779.47C1773.11 2070.96 1768.08 2054.2 1768.08 2034.1C1768.08 2016.86 1771.78 2002.02 1776.96 1998.19C1799.89 1981.44 1831.55 1904.36 1831.55 1766.01V1053.67C1831.55 915.798 1799.74 838.245 1776.96 821.489C1771.78 817.66 1768.08 802.819 1768.08 785.585V784.628C1768.08 765 1772.81 748.723 1778.88 747.766C1830.22 741.064 1893.1 689.84 1935.12 600.798C1937.04 596.968 1939.12 594.574 1941.34 594.574H1947.99C1954.36 594.574 1959.39 611.33 1959.39 631.436V686.011C1959.39 717.606 1970.78 734.362 1978.18 714.255C2007.18 634.308 2044.31 594.574 2084.41 594.574L2084.26 593.617Z" fill="#0E331C"/>
<path d="M2674.16 1765.05V1052.71C2674.16 914.84 2641.61 837.287 2618.68 820.532C2613.5 816.702 2609.8 801.862 2609.8 784.628V783.67C2609.8 764.043 2614.54 747.766 2620.6 746.808C2671.94 740.106 2735.71 688.883 2777.73 599.84C2779.66 596.011 2781.73 593.617 2783.95 593.617H2790.6C2796.97 593.617 2802 610.372 2802 630.479V1765.05C2802 1902.93 2833.81 1980.48 2856.59 1997.23C2861.77 2001.06 2865.47 2015.9 2865.47 2033.14C2865.47 2053.72 2860.29 2070 2854.08 2070H2621.19C2614.83 2070 2609.8 2053.24 2609.8 2033.14C2609.8 2015.9 2613.5 2001.06 2618.68 1997.23C2641.76 1980.48 2674.16 1903.4 2674.16 1765.05ZM2721.8 473.936C2673.28 473.936 2648.12 368.138 2648.12 238.404C2648.12 108.67 2673.28 0 2721.8 0C2770.33 0 2794.6 105.798 2794.6 238.404C2794.6 371.011 2769.45 473.936 2721.8 473.936Z" fill="#0E331C"/>
<path d="M2960.02 1765.05V1052.71C2960.02 914.84 2927.46 837.287 2904.53 820.532C2899.35 816.702 2895.65 801.862 2895.65 784.628V783.67C2895.65 764.043 2900.39 747.766 2906.46 746.808C2957.8 740.106 3021.57 688.883 3063.58 599.84C3065.51 596.011 3067.58 593.617 3069.8 593.617H3076.46C3082.82 593.617 3087.85 610.372 3087.85 630.479V1765.05C3087.85 1902.93 3119.66 1980.48 3142.45 1997.23C3147.62 2001.06 3151.32 2015.9 3151.32 2033.14C3151.32 2053.72 3146.14 2070 3139.93 2070H2907.05C2900.68 2070 2895.65 2053.24 2895.65 2033.14C2895.65 2015.9 2899.35 2001.06 2904.53 1997.23C2927.61 1980.48 2960.02 1903.4 2960.02 1765.05ZM3007.66 473.936C2959.13 473.936 2933.97 368.138 2933.97 238.404C2933.97 108.67 2958.98 0 3007.51 0C3056.04 0 3080.3 105.798 3080.3 238.404C3080.3 371.011 3055.15 473.936 3007.51 473.936H3007.66Z" fill="#0E331C"/>
<path d="M3244.83 1765.05V1052.71C3244.83 915.319 3212.58 837.766 3190.09 821.011C3184.91 817.181 3181.36 802.34 3181.36 785.106V784.149C3181.36 764.521 3186.09 748.245 3192.16 747.287C3243.5 740.585 3306.38 689.362 3348.4 600.319C3350.32 596.489 3352.39 594.096 3354.61 594.096H3361.27C3367.63 594.096 3372.66 610.851 3372.66 630.957V685.532C3372.66 717.128 3384.06 733.883 3391.46 713.777C3420.45 634.308 3457.59 594.096 3497.69 594.096C3576.1 594.096 3650.67 763.085 3650.67 1152.77V1765.53C3650.67 1902.93 3682.93 1980.48 3705.42 1997.23C3710.6 2001.06 3714.15 2015.9 3714.15 2033.14C3714.15 2053.72 3708.97 2070.48 3702.76 2070.48H3470.91C3464.55 2070.48 3459.52 2053.72 3459.52 2033.62C3459.52 2016.38 3463.21 2001.54 3468.39 1997.71C3491.33 1980.96 3522.99 1903.88 3522.99 1765.53V1152.77C3522.99 875.106 3486.59 778.404 3448.27 778.404C3415.28 778.404 3382.28 860.266 3373.11 960.319C3372.81 963.67 3372.66 967.5 3372.66 971.33V1766.01C3372.66 1903.88 3404.48 1981.44 3427.26 1998.19C3432.44 2002.02 3436.14 2016.86 3436.14 2034.1C3436.14 2054.68 3430.96 2070.96 3424.75 2070.96H3192.9C3186.54 2070.96 3181.51 2054.2 3181.51 2034.1C3181.51 2016.86 3185.06 2002.02 3190.23 1998.19C3212.72 1980.96 3244.98 1903.88 3244.98 1766.49L3244.83 1765.05Z" fill="#0E331C"/>
<path d="M3808.69 1765.05V1052.71C3808.69 914.84 3776.14 837.287 3753.21 820.532C3748.03 816.702 3744.33 801.862 3744.33 784.628V783.67C3744.33 764.043 3749.07 747.766 3755.13 746.808C3806.47 740.106 3870.24 688.883 3912.26 599.84C3914.19 596.011 3916.26 593.617 3918.48 593.617H3925.13C3931.5 593.617 3936.53 610.372 3936.53 630.479V1765.05C3936.53 1902.93 3968.34 1980.48 3991.12 1997.23C3996.3 2001.06 4000 2015.9 4000 2033.14C4000 2053.72 3994.82 2070 3988.61 2070H3755.72C3749.36 2070 3744.33 2053.24 3744.33 2033.14C3744.33 2015.9 3748.03 2001.06 3753.21 1997.23C3776.29 1980.48 3808.69 1903.4 3808.69 1765.05ZM3856.33 473.936C3807.8 473.936 3782.65 368.138 3782.65 238.404C3782.65 108.67 3807.8 0 3856.33 0C3904.86 0 3929.13 105.798 3929.13 238.404C3929.13 371.011 3903.98 473.936 3856.33 473.936Z" fill="#0E331C"/>
<path d="M1614.8 1130.74C1545.4 1126.44 1492.73 1220.27 1456.19 1408.88C1432.07 1533.83 1410.76 1665.48 1383.98 1783.72C1329.39 2024.52 1212.8 2105.9 1130.53 1969.95C1096.06 1912.98 1073.42 1821.54 1060.4 1707.13C1035.55 1486.91 1029.04 1260.48 1046.64 1031.65C1068.25 751.596 1143.41 592.66 1231.74 634.787C1269.61 652.979 1293.43 720 1299.06 825.319C1304.83 933.511 1277.01 1055.59 1243.13 1065.16C1236.92 1067.07 1228.33 1056.06 1224.04 1041.22C1204.37 972.287 1180.4 967.021 1155.69 995.745C1111.45 1046.97 1084.52 1209.26 1094.43 1357.66C1099.91 1438.56 1113.82 1498.88 1137.78 1534.31C1179.51 1595.59 1224.78 1577.87 1257.63 1463.94C1289.44 1353.83 1316.81 1230.8 1345.81 1112.55C1386.8 945.957 1432.81 801.383 1498.06 737.713C1547.92 689.362 1598.22 683.617 1648.53 725.745C1726.5 790.851 1775.48 996.702 1781.39 1281.54C1784.21 1417.02 1780.95 1550.59 1764.53 1677.93C1733.16 1921.12 1641.13 2028.35 1572.33 1901.49C1545.85 1852.66 1532.98 1767.45 1538.3 1677.45C1542.89 1600.85 1567.45 1529.52 1595.12 1521.38C1602.66 1518.99 1613.02 1530.96 1618.35 1548.19C1643.06 1629.1 1692.18 1623.35 1718.81 1532.87C1744.7 1444.79 1741.3 1298.78 1711.26 1223.14C1682.71 1150.85 1649.27 1131.7 1614.2 1131.7L1614.8 1130.74Z" fill="#0E331C"/>
</g>
<defs>
<clipPath id="clip0_3_92">
<rect width="4000" height="2070" fill="white"/>
</clipPath>
</defs>
</svg>
