<svg width="12" height="12" viewBox="0 0 12 12" fill="none" xmlns="http://www.w3.org/2000/svg">
<path d="M0 6C0 9.31406 2.68594 12 6 12C9.31406 12 12 9.31406 12 6C12 2.68594 9.31406 0 6 0C2.68594 0 0 2.68594 0 6ZM6.96094 9.02344C6.74062 9.24375 6.38438 9.24375 6.16641 9.02344C5.94844 8.80313 5.94609 8.44688 6.16641 8.22891L7.83047 6.56484L2.8125 6.5625C2.50078 6.5625 2.25 6.31172 2.25 6C2.25 5.68828 2.50078 5.4375 2.8125 5.4375H7.83047L6.16641 3.77344C5.94609 3.55312 5.94609 3.19687 6.16641 2.97891C6.38672 2.76094 6.74297 2.75859 6.96094 2.97891L9.58594 5.60156C9.80625 5.82188 9.80625 6.17812 9.58594 6.39609L6.96094 9.02344Z" fill="white"/>
</svg>
