<svg width="4000" height="4000" viewBox="0 0 4000 4000" fill="none" xmlns="http://www.w3.org/2000/svg">
<g clip-path="url(#clip0_3_143)">
<path d="M2000 4000C3104.57 4000 4000 3104.57 4000 2000C4000 895.43 3104.57 0 2000 0C895.43 0 0 895.43 0 2000C0 3104.57 895.43 4000 2000 4000Z" fill="#E4DFC1"/>
<path d="M2833.97 1169.07C2887.2 1368.31 3023.57 1511.28 3138.15 1667.93C3197.97 1749.56 3244.11 1837.26 3275.54 1934.6C3299.87 2009.13 3359.7 2022.31 3401.77 1955.39C3440.81 1893.03 3474.27 1821.55 3488.47 1749.05C3506.72 1656.78 3502.15 1559.44 3509.76 1464.64C3514.83 1401.77 3521.93 1338.4 3573.64 1292.27C3534.6 1435.23 3578.71 1577.19 3573.64 1719.64C3568.06 1877.31 3529.53 2017.24 3413.43 2130.8C3344.99 2197.72 3289.73 2278.83 3230.93 2355.89C3126.49 2494.3 2982 2544.49 2822.31 2568.82C2676.81 2591.13 2531.81 2620.53 2401.01 2697.08C2297.08 2757.92 2204.82 2830.92 2156.65 2950.57C2155.13 2954.12 2150.57 2956.15 2147.02 2959.19C2093.28 2767.05 2154.12 2503.42 2301.65 2380.73C2400 2299.11 2510.52 2229.66 2560.2 2097.84L2571.36 2101.9C2571.36 2117.11 2573.38 2132.83 2571.36 2148.03C2559.7 2228.64 2510.01 2284.41 2457.79 2338.66C2428.39 2369.07 2396.45 2396.45 2370.6 2429.4C2349.81 2455.77 2337.14 2489.23 2321.42 2519.14L2333.08 2526.74C2443.09 2465.4 2555.13 2407.1 2663.12 2341.7C2694.04 2322.94 2720.91 2287.96 2738.66 2254.5C2819.26 2102.41 2891.76 1946.77 2878.58 1764.77C2877.57 1754.12 2879.59 1743.47 2880.1 1732.83L2891.25 1728.26C2899.37 1748.04 2909.51 1767.3 2914.58 1788.09C2953.11 1948.8 2936.38 2105.45 2886.69 2261.09C2876.55 2292.52 2883.65 2330.04 2882.64 2365.02C2914.07 2356.4 2948.54 2353.87 2975.92 2337.64C3149.3 2236.76 3206.59 2075.54 3134.6 1881.88C3110.27 1815.97 3074.78 1753.61 3040.81 1692.27C2982.51 1586.31 2918.63 1483.9 2861.85 1376.93C2828.39 1313.56 2823.83 1242.08 2834.47 1168.57L2833.97 1169.07Z" fill="#0E331C"/>
<path d="M2043.09 1696.32C2079.59 1803.3 2055.26 1895.06 2002.53 1981.75C1906.72 1923.95 1894.55 1819.52 1964.51 1706.46C1924.46 1721.67 1881.88 1746.01 1836.25 1754.12C1791.64 1761.72 1744.49 1753.11 1693.28 1751.08C1706.46 1683.65 1737.39 1644.11 1784.03 1615.72C1832.7 1586.31 1881.37 1588.34 1932.07 1618.76C1853.99 1551.33 1823.07 1464.64 1816.98 1365.27C1927 1348.54 1993.92 1427.12 2000 1592.9C2030.42 1471.74 2099.37 1406.34 2195.69 1367.81C2246.39 1474.27 2194.68 1574.65 2076.05 1612.67C2115.59 1624.84 2162.74 1632.45 2202.79 1653.74C2243.35 1675.54 2277.31 1711.53 2313.81 1741.44C2242.84 1830.67 2141.95 1812.93 2043.09 1696.32Z" fill="#0E331C"/>
<path d="M2491.25 1773.89C2378.2 1853.99 2316.35 1967.05 2293.03 2106.46C2283.9 2160.71 2271.23 2214.96 2256.53 2268.19C2250.95 2288.47 2240.81 2310.77 2226.11 2324.46C2176.43 2370.09 2124.21 2412.17 2072.5 2455.77C2040.56 2250.95 2294.04 1835.74 2491.76 1773.38L2491.25 1773.89Z" fill="#0E331C"/>
<path d="M1494.55 1770.34C1607.6 1850.44 1669.46 1963.5 1692.78 2102.91C1701.9 2157.16 1714.58 2211.41 1729.28 2264.64C1734.85 2284.92 1744.99 2307.22 1759.7 2320.91C1809.38 2366.54 1861.6 2408.62 1913.31 2452.22C1945.25 2247.4 1691.76 1832.19 1494.04 1769.83L1494.55 1770.34Z" fill="#0E331C"/>
<path d="M1166.03 1169.07C1112.8 1368.31 976.426 1511.28 861.85 1667.93C802.028 1749.56 755.894 1837.26 724.461 1934.6C700.127 2009.13 640.304 2022.31 598.226 1955.39C559.189 1893.03 525.729 1821.55 511.534 1749.05C493.283 1656.78 497.845 1559.44 490.241 1464.64C485.171 1401.77 478.074 1338.4 426.363 1292.27C465.399 1435.23 421.293 1577.19 426.363 1719.64C431.939 1877.31 470.469 2017.24 586.565 2130.8C655.006 2197.72 710.266 2278.83 769.075 2355.89C873.511 2494.3 1018 2544.49 1177.69 2568.82C1323.19 2591.13 1468.19 2620.53 1598.99 2697.08C1702.92 2757.92 1795.18 2830.92 1843.35 2950.57C1844.87 2954.12 1849.43 2956.15 1852.98 2959.19C1906.72 2767.05 1845.88 2503.42 1698.35 2380.73C1600 2299.11 1489.48 2229.66 1439.8 2097.84L1428.64 2101.9C1428.64 2117.11 1426.62 2132.83 1428.64 2148.03C1440.3 2228.64 1489.99 2284.41 1542.21 2338.66C1571.61 2369.07 1603.55 2396.45 1629.4 2429.4C1650.19 2455.77 1662.86 2489.23 1678.58 2519.14L1666.92 2526.74C1556.91 2465.4 1444.87 2407.1 1336.88 2341.7C1305.96 2322.94 1279.09 2287.96 1261.34 2254.5C1180.74 2102.41 1108.24 1946.77 1121.42 1764.77C1122.43 1754.12 1120.41 1743.47 1119.9 1732.83L1108.75 1728.26C1100.63 1748.04 1090.49 1767.3 1085.42 1788.09C1046.89 1948.8 1063.62 2105.45 1113.31 2261.09C1123.45 2292.52 1116.35 2330.04 1117.36 2365.02C1085.93 2356.4 1051.46 2353.87 1024.08 2337.64C850.697 2236.76 793.409 2075.54 865.399 1881.88C889.734 1815.97 925.222 1753.61 959.189 1692.27C1017.49 1586.31 1081.37 1483.9 1138.15 1376.93C1171.61 1313.56 1176.17 1242.08 1165.53 1168.57L1166.03 1169.07Z" fill="#0E331C"/>
</g>
<defs>
<clipPath id="clip0_3_143">
<rect width="4000" height="4000" fill="white"/>
</clipPath>
</defs>
</svg>
